<svg width="132" height="45" viewBox="0 0 132 45" fill="none" xmlns="http://www.w3.org/2000/svg">
  <path
    d="M12 26.563C12.1436 29.3825 13.2036 31.8176 15.75 33.625C17.4745 34.849 21 35.6874 25.5 33.625C30 31.5625 37.1838 20.4955 39.3125 17.5628C44.9375 9.81311 51.4209 7.40212 60.5625 8.37532C66.4375 9.00077 71.4197 10.8825 78.125 18.0631C87.8125 28.4373 92.25 50.5 82.875 41.375C77.3912 36.0374 89.25 38.9998 93.75 26.2498C95.8183 20.3897 98.375 14.3748 102.375 12.7498"
    stroke="#D1F366" />
  <path
    d="M109.107 5.70999C109.837 5.20871 111.532 4.9555 112.045 5.70246C112.573 6.47076 111.713 7.94044 110.983 8.44173L108.495 10.1508L108.928 15.3778C108.952 15.6727 108.817 15.9604 108.571 16.1289L107.372 16.9527C107.145 17.108 106.832 17.0032 106.744 16.743L105.277 12.3611L103.081 13.8694L103.003 15.7318C102.997 15.8615 102.931 15.9822 102.824 16.056L101.928 16.6712C101.763 16.7847 101.536 16.7424 101.41 16.5589C101.404 16.5503 101.389 16.5199 101.378 16.4869L100.435 13.6761L98.15 11.7875C98.1233 11.765 98.1004 11.7399 98.0813 11.7122C97.9685 11.5478 98.0103 11.3213 98.1756 11.2077L99.0713 10.5926C99.1788 10.5187 99.3152 10.5004 99.4383 10.5415L101.204 11.1376L103.401 9.62937L99.8375 6.68682C99.6256 6.511 99.6409 6.18109 99.8671 6.02572L101.067 5.20198C101.312 5.03342 101.628 5.00936 101.896 5.13853L106.619 7.41904L109.107 5.70999Z"
    fill="#EC502C" />
  <path
    d="M9.498 18.2958C8.266 18.2958 7.33467 18.5672 6.704 19.1098C6.07333 19.6378 5.758 20.4372 5.758 21.5078V22.4538H12.094V25.3138H5.758V30.9238H2.194V21.5298C2.194 19.5498 2.81 18.0098 4.042 16.9098C5.28867 15.8098 7.02667 15.2598 9.256 15.2598C10.136 15.2598 10.9647 15.3552 11.742 15.5458C12.5193 15.7218 13.194 15.9858 13.766 16.3378L12.666 19.1538C11.786 18.5818 10.73 18.2958 9.498 18.2958ZM20.5851 31.0998C19.3385 31.0998 18.2165 30.8432 17.2191 30.3298C16.2365 29.8018 15.4665 29.0758 14.9091 28.1518C14.3518 27.2278 14.0731 26.1792 14.0731 25.0058C14.0731 23.8325 14.3518 22.7838 14.9091 21.8598C15.4665 20.9358 16.2365 20.2172 17.2191 19.7038C18.2165 19.1758 19.3385 18.9118 20.5851 18.9118C21.8318 18.9118 22.9465 19.1758 23.9291 19.7038C24.9118 20.2172 25.6818 20.9358 26.2391 21.8598C26.7965 22.7838 27.0751 23.8325 27.0751 25.0058C27.0751 26.1792 26.7965 27.2278 26.2391 28.1518C25.6818 29.0758 24.9118 29.8018 23.9291 30.3298C22.9465 30.8432 21.8318 31.0998 20.5851 31.0998ZM20.5851 28.2838C21.4651 28.2838 22.1838 27.9905 22.7411 27.4038C23.3131 26.8025 23.5991 26.0032 23.5991 25.0058C23.5991 24.0085 23.3131 23.2165 22.7411 22.6298C22.1838 22.0285 21.4651 21.7278 20.5851 21.7278C19.7051 21.7278 18.9791 22.0285 18.4071 22.6298C17.8351 23.2165 17.5491 24.0085 17.5491 25.0058C17.5491 26.0032 17.8351 26.8025 18.4071 27.4038C18.9791 27.9905 19.7051 28.2838 20.5851 28.2838ZM36.5279 30.9238L33.9319 27.2938L31.2479 30.9238H27.5079L32.0619 24.9618L27.6619 19.0878H31.5119L34.0199 22.5418L36.5939 19.0878H40.2459L35.8459 24.8738L40.4219 30.9238H36.5279ZM59.7804 19.8358C58.4604 19.0732 57.045 18.5818 55.5344 18.3618V30.9238H51.9704V18.3618C50.4597 18.5818 49.037 19.0732 47.7024 19.8358L46.4924 17.1738C47.5484 16.5432 48.6924 16.0665 49.9244 15.7438C51.1564 15.4212 52.425 15.2598 53.7304 15.2598C55.0504 15.2598 56.3264 15.4212 57.5584 15.7438C58.805 16.0665 59.949 16.5432 60.9904 17.1738L59.7804 19.8358ZM65.4108 20.6498C65.8215 20.0778 66.3715 19.6452 67.0608 19.3518C67.7648 19.0585 68.5715 18.9118 69.4808 18.9118V22.0798C69.0995 22.0505 68.8428 22.0358 68.7108 22.0358C67.7282 22.0358 66.9582 22.3145 66.4008 22.8718C65.8435 23.4145 65.5648 24.2358 65.5648 25.3358V30.9238H62.1328V19.0878H65.4108V20.6498ZM83.4261 19.0878V30.9238H80.1481V29.5598C79.2974 30.5865 78.0654 31.0998 76.4521 31.0998C75.3374 31.0998 74.3254 30.8505 73.4161 30.3518C72.5214 29.8532 71.8174 29.1418 71.3041 28.2178C70.7907 27.2938 70.5341 26.2232 70.5341 25.0058C70.5341 23.7885 70.7907 22.7178 71.3041 21.7938C71.8174 20.8698 72.5214 20.1585 73.4161 19.6598C74.3254 19.1612 75.3374 18.9118 76.4521 18.9118C77.9627 18.9118 79.1434 19.3885 79.9941 20.3418V19.0878H83.4261ZM77.0461 28.2838C77.9114 28.2838 78.6301 27.9905 79.2021 27.4038C79.7741 26.8025 80.0601 26.0032 80.0601 25.0058C80.0601 24.0085 79.7741 23.2165 79.2021 22.6298C78.6301 22.0285 77.9114 21.7278 77.0461 21.7278C76.1661 21.7278 75.4401 22.0285 74.8681 22.6298C74.2961 23.2165 74.0101 24.0085 74.0101 25.0058C74.0101 26.0032 74.2961 26.8025 74.8681 27.4038C75.4401 27.9905 76.1661 28.2838 77.0461 28.2838ZM98.3515 19.0878L93.3575 30.9238H89.8155L84.8435 19.0878H88.3855L91.6635 27.1398L95.0515 19.0878H98.3515ZM105.392 28.3498C106.008 28.3498 106.55 28.2618 107.02 28.0858C107.504 27.8952 107.951 27.6018 108.362 27.2058L110.188 29.1858C109.073 30.4618 107.445 31.0998 105.304 31.0998C103.969 31.0998 102.788 30.8432 101.762 30.3298C100.735 29.8018 99.943 29.0758 99.3857 28.1518C98.8284 27.2278 98.5497 26.1792 98.5497 25.0058C98.5497 23.8472 98.821 22.8058 99.3637 21.8818C99.921 20.9432 100.676 20.2172 101.63 19.7038C102.598 19.1758 103.683 18.9118 104.886 18.9118C106.015 18.9118 107.042 19.1538 107.966 19.6378C108.89 20.1072 109.623 20.7965 110.166 21.7058C110.723 22.6005 111.002 23.6638 111.002 24.8958L102.246 26.5898C102.495 27.1765 102.884 27.6165 103.412 27.9098C103.954 28.2032 104.614 28.3498 105.392 28.3498ZM104.886 21.5078C104.02 21.5078 103.316 21.7865 102.774 22.3438C102.231 22.9012 101.945 23.6712 101.916 24.6538L107.68 23.5318C107.518 22.9158 107.188 22.4245 106.69 22.0578C106.191 21.6912 105.59 21.5078 104.886 21.5078ZM117.555 31.0998C116.22 31.0998 115.179 30.7478 114.431 30.0438C113.683 29.3252 113.309 28.3132 113.309 27.0078V14.5998H116.741V26.8098C116.741 27.3085 116.865 27.6972 117.115 27.9758C117.379 28.2398 117.745 28.3718 118.215 28.3718C118.391 28.3718 118.567 28.3498 118.743 28.3058C118.933 28.2618 119.08 28.2105 119.183 28.1518L119.337 30.8138C118.765 31.0045 118.171 31.0998 117.555 31.0998ZM125.004 31.0998C124.021 31.0998 123.06 30.9825 122.122 30.7478C121.183 30.4985 120.435 30.1905 119.878 29.8238L121.022 27.3598C121.55 27.6972 122.188 27.9758 122.936 28.1958C123.684 28.4012 124.417 28.5038 125.136 28.5038C126.588 28.5038 127.314 28.1445 127.314 27.4258C127.314 27.0885 127.116 26.8465 126.72 26.6998C126.324 26.5532 125.715 26.4285 124.894 26.3258C123.926 26.1792 123.126 26.0105 122.496 25.8198C121.865 25.6292 121.315 25.2918 120.846 24.8078C120.391 24.3238 120.163 23.6345 120.163 22.7398C120.163 21.9918 120.376 21.3318 120.802 20.7598C121.242 20.1732 121.872 19.7185 122.694 19.3958C123.53 19.0732 124.512 18.9118 125.642 18.9118C126.478 18.9118 127.306 19.0072 128.128 19.1978C128.964 19.3738 129.653 19.6232 130.196 19.9458L129.052 22.3878C128.01 21.8012 126.874 21.5078 125.642 21.5078C124.908 21.5078 124.358 21.6105 123.992 21.8158C123.625 22.0212 123.442 22.2852 123.442 22.6078C123.442 22.9745 123.64 23.2312 124.036 23.3778C124.432 23.5245 125.062 23.6638 125.928 23.7958C126.896 23.9572 127.688 24.1332 128.304 24.3238C128.92 24.4998 129.455 24.8298 129.91 25.3138C130.364 25.7978 130.592 26.4725 130.592 27.3378C130.592 28.0712 130.372 28.7238 129.932 29.2958C129.492 29.8678 128.846 30.3152 127.996 30.6378C127.16 30.9458 126.162 31.0998 125.004 31.0998Z"
    fill="#D1F366" />
</svg>