<svg width="129" height="44" viewBox="0 0 129 44" fill="none" xmlns="http://www.w3.org/2000/svg">
  <path
    d="M9.806 26.324C9.94959 29.1435 11.0096 31.5786 13.556 33.386C15.2805 34.6099 18.806 35.4484 23.306 33.386C27.806 31.3235 34.9898 20.2565 37.1185 17.3238C42.7435 9.5741 49.2269 7.16311 58.3685 8.13631C64.2435 8.76175 69.2257 10.6435 75.931 17.8241C85.6185 28.1983 90.056 50.261 80.681 41.136C75.1972 35.7984 87.056 38.7608 91.556 26.0108C93.6243 20.1507 96.181 14.1358 100.181 12.5108"
    stroke="#EC502C" class="logo-animation-1"></path>
  <path
    d="M106.913 5.47098C107.643 4.96969 109.338 4.71649 109.851 5.46345C110.379 6.23175 109.519 7.70143 108.789 8.20271L106.301 9.91176L106.734 15.1388C106.758 15.4337 106.623 15.7214 106.377 15.8899L105.178 16.7137C104.951 16.869 104.638 16.7642 104.55 16.504L103.083 12.1221L100.887 13.6303L100.809 15.4928C100.803 15.6225 100.737 15.7432 100.63 15.817L99.7339 16.4322C99.5685 16.5457 99.3421 16.5034 99.216 16.3198C99.2102 16.3113 99.195 16.2809 99.1836 16.2479L98.2412 13.4371L95.956 11.5485C95.9293 11.526 95.9064 11.5009 95.8873 11.4731C95.7745 11.3088 95.8163 11.0823 95.9816 10.9687L96.8773 10.3536C96.9848 10.2797 97.1212 10.2614 97.2443 10.3025L99.0105 10.8986L101.207 9.39036L97.6435 6.4478C97.4316 6.27198 97.4469 5.94208 97.6731 5.78671L98.8725 4.96296C99.1179 4.7944 99.4344 4.77035 99.7021 4.89952L104.425 7.18003L106.913 5.47098Z"
    fill="#D1F366" class="logo-animation-2"></path>
  <path
    d="M7.304 18.0568C6.072 18.0568 5.14067 18.3282 4.51 18.8708C3.87933 19.3988 3.564 20.1982 3.564 21.2688V22.2148H9.9V25.0748H3.564V30.6848H0V21.2908C0 19.3108 0.616 17.7708 1.848 16.6708C3.09467 15.5708 4.83267 15.0208 7.062 15.0208C7.942 15.0208 8.77067 15.1162 9.548 15.3068C10.3253 15.4828 11 15.7468 11.572 16.0988L10.472 18.9148C9.592 18.3428 8.536 18.0568 7.304 18.0568Z"
    fill="#EC502C" class="logo-animation-3"></path>
  <path
    d="M18.3911 30.8608C17.1445 30.8608 16.0225 30.6042 15.0251 30.0908C14.0425 29.5628 13.2725 28.8368 12.7151 27.9128C12.1578 26.9888 11.8791 25.9402 11.8791 24.7668C11.8791 23.5935 12.1578 22.5448 12.7151 21.6208C13.2725 20.6968 14.0425 19.9782 15.0251 19.4648C16.0225 18.9368 17.1445 18.6728 18.3911 18.6728C19.6378 18.6728 20.7525 18.9368 21.7351 19.4648C22.7178 19.9782 23.4878 20.6968 24.0451 21.6208C24.6025 22.5448 24.8811 23.5935 24.8811 24.7668C24.8811 25.9402 24.6025 26.9888 24.0451 27.9128C23.4878 28.8368 22.7178 29.5628 21.7351 30.0908C20.7525 30.6042 19.6378 30.8608 18.3911 30.8608ZM18.3911 28.0448C19.2711 28.0448 19.9898 27.7515 20.5471 27.1648C21.1191 26.5635 21.4051 25.7642 21.4051 24.7668C21.4051 23.7695 21.1191 22.9775 20.5471 22.3908C19.9898 21.7895 19.2711 21.4888 18.3911 21.4888C17.5111 21.4888 16.7851 21.7895 16.2131 22.3908C15.6411 22.9775 15.3551 23.7695 15.3551 24.7668C15.3551 25.7642 15.6411 26.5635 16.2131 27.1648C16.7851 27.7515 17.5111 28.0448 18.3911 28.0448Z"
    fill="#EC502C" class="logo-animation-4"></path>
  <path
    d="M34.3339 30.6848L31.7379 27.0548L29.0539 30.6848H25.3139L29.8679 24.7228L25.4679 18.8488H29.3179L31.8259 22.3028L34.3999 18.8488H38.0519L33.6519 24.6348L38.2279 30.6848H34.3339Z"
    fill="#EC502C" class="logo-animation-5"></path>
  <path
    d="M57.5864 19.5968C56.2664 18.8342 54.851 18.3428 53.3404 18.1228V30.6848H49.7764V18.1228C48.2657 18.3428 46.843 18.8342 45.5084 19.5968L44.2984 16.9348C45.3544 16.3042 46.4984 15.8275 47.7304 15.5048C48.9624 15.1822 50.231 15.0208 51.5364 15.0208C52.8564 15.0208 54.1324 15.1822 55.3644 15.5048C56.611 15.8275 57.755 16.3042 58.7964 16.9348L57.5864 19.5968Z"
    fill="#EC502C" class="logo-animation-6"></path>
  <path
    d="M63.2168 20.4108C63.6275 19.8388 64.1775 19.4062 64.8668 19.1128C65.5708 18.8195 66.3775 18.6728 67.2868 18.6728V21.8408C66.9055 21.8115 66.6488 21.7968 66.5168 21.7968C65.5342 21.7968 64.7642 22.0755 64.2068 22.6328C63.6495 23.1755 63.3708 23.9968 63.3708 25.0968V30.6848H59.9388V18.8488H63.2168V20.4108Z"
    fill="#EC502C" class="logo-animation-7"></path>
  <path
    d="M81.2321 18.8488V30.6848H77.9541V29.3208C77.1034 30.3475 75.8714 30.8608 74.2581 30.8608C73.1434 30.8608 72.1314 30.6115 71.2221 30.1128C70.3274 29.6142 69.6234 28.9028 69.1101 27.9788C68.5967 27.0548 68.3401 25.9842 68.3401 24.7668C68.3401 23.5495 68.5967 22.4788 69.1101 21.5548C69.6234 20.6308 70.3274 19.9195 71.2221 19.4208C72.1314 18.9222 73.1434 18.6728 74.2581 18.6728C75.7687 18.6728 76.9494 19.1495 77.8001 20.1028V18.8488H81.2321ZM74.8521 28.0448C75.7174 28.0448 76.4361 27.7515 77.0081 27.1648C77.5801 26.5635 77.8661 25.7642 77.8661 24.7668C77.8661 23.7695 77.5801 22.9775 77.0081 22.3908C76.4361 21.7895 75.7174 21.4888 74.8521 21.4888C73.9721 21.4888 73.2461 21.7895 72.6741 22.3908C72.1021 22.9775 71.8161 23.7695 71.8161 24.7668C71.8161 25.7642 72.1021 26.5635 72.6741 27.1648C73.2461 27.7515 73.9721 28.0448 74.8521 28.0448Z"
    fill="#EC502C" class="logo-animation-8"></path>
  <path d="M96.1575 18.8488L91.1635 30.6848H87.6215L82.6495 18.8488H86.1915L89.4695 26.9008L92.8575 18.8488H96.1575Z"
    fill="#EC502C" class="logo-animation-9"></path>
  <path
    d="M103.198 28.1108C103.814 28.1108 104.356 28.0228 104.826 27.8468C105.31 27.6562 105.757 27.3628 106.168 26.9668L107.994 28.9468C106.879 30.2228 105.251 30.8608 103.11 30.8608C101.775 30.8608 100.594 30.6042 99.5677 30.0908C98.541 29.5628 97.749 28.8368 97.1917 27.9128C96.6344 26.9888 96.3557 25.9402 96.3557 24.7668C96.3557 23.6082 96.627 22.5668 97.1697 21.6428C97.727 20.7042 98.4824 19.9782 99.4357 19.4648C100.404 18.9368 101.489 18.6728 102.692 18.6728C103.821 18.6728 104.848 18.9148 105.772 19.3988C106.696 19.8682 107.429 20.5575 107.972 21.4668C108.529 22.3615 108.808 23.4248 108.808 24.6568L100.052 26.3508C100.301 26.9375 100.69 27.3775 101.218 27.6708C101.76 27.9642 102.42 28.1108 103.198 28.1108ZM102.692 21.2688C101.826 21.2688 101.122 21.5475 100.58 22.1048C100.037 22.6622 99.751 23.4322 99.7217 24.4148L105.486 23.2928C105.324 22.6768 104.994 22.1855 104.496 21.8188C103.997 21.4522 103.396 21.2688 102.692 21.2688Z"
    fill="#EC502C" class="logo-animation-10"></path>
  <path
    d="M115.361 30.8608C114.026 30.8608 112.985 30.5088 112.237 29.8048C111.489 29.0862 111.115 28.0742 111.115 26.7688V14.3608H114.547V26.5708C114.547 27.0695 114.671 27.4582 114.921 27.7368C115.185 28.0008 115.551 28.1328 116.021 28.1328C116.197 28.1328 116.373 28.1108 116.549 28.0668C116.739 28.0228 116.886 27.9715 116.989 27.9128L117.143 30.5748C116.571 30.7655 115.977 30.8608 115.361 30.8608Z"
    fill="#EC502C" class="logo-animation-11"></path>
  <path
    d="M122.81 30.8608C121.827 30.8608 120.866 30.7435 119.927 30.5088C118.989 30.2595 118.241 29.9515 117.684 29.5848L118.827 27.1208C119.355 27.4582 119.994 27.7368 120.742 27.9568C121.49 28.1622 122.223 28.2648 122.941 28.2648C124.393 28.2648 125.119 27.9055 125.119 27.1868C125.119 26.8495 124.921 26.6075 124.525 26.4608C124.129 26.3142 123.521 26.1895 122.7 26.0868C121.732 25.9402 120.932 25.7715 120.301 25.5808C119.671 25.3902 119.121 25.0528 118.651 24.5688C118.197 24.0848 117.969 23.3955 117.969 22.5008C117.969 21.7528 118.182 21.0928 118.607 20.5208C119.047 19.9342 119.678 19.4795 120.499 19.1568C121.335 18.8342 122.318 18.6728 123.448 18.6728C124.284 18.6728 125.112 18.7682 125.934 18.9588C126.77 19.1348 127.459 19.3842 128.001 19.7068L126.857 22.1488C125.816 21.5622 124.68 21.2688 123.448 21.2688C122.714 21.2688 122.164 21.3715 121.798 21.5768C121.431 21.7822 121.247 22.0462 121.247 22.3688C121.247 22.7355 121.445 22.9922 121.841 23.1388C122.237 23.2855 122.868 23.4248 123.733 23.5568C124.701 23.7182 125.493 23.8942 126.109 24.0848C126.725 24.2608 127.261 24.5908 127.715 25.0748C128.17 25.5588 128.398 26.2335 128.398 27.0988C128.398 27.8322 128.178 28.4848 127.738 29.0568C127.298 29.6288 126.652 30.0762 125.801 30.3988C124.965 30.7068 123.968 30.8608 122.81 30.8608Z"
    fill="#EC502C" class="logo-animation-12"></path>
</svg>