<svg width="15" height="13" viewBox="0 0 15 13" fill="none" xmlns="http://www.w3.org/2000/svg">
  <path
    d="M11.1073 1.47098C11.8372 0.969694 13.5321 0.716488 14.0451 1.46345C14.5728 2.23175 13.7133 3.70143 12.9835 4.20271L10.495 5.91176L10.9284 11.1388C10.9519 11.4337 10.8165 11.7214 10.5711 11.8899L9.3717 12.7137C9.14547 12.869 8.83164 12.7642 8.74402 12.504L7.27669 8.1221L5.08063 9.63034L5.00294 11.4928C4.99711 11.6225 4.93113 11.7432 4.82357 11.817L3.92786 12.4322C3.76255 12.5457 3.53609 12.5034 3.41004 12.3198C3.40418 12.3113 3.38901 12.2809 3.37759 12.2479L2.43522 9.43706L0.150037 7.54847C0.123342 7.52597 0.100403 7.50089 0.0813485 7.47315C-0.0315133 7.30882 0.0102564 7.08226 0.175569 6.96872L1.07128 6.35355C1.17884 6.27968 1.31518 6.26142 1.43826 6.30252L3.20449 6.89861L5.40055 5.39036L1.83746 2.4478C1.62563 2.27198 1.64089 1.94208 1.86711 1.78671L3.06652 0.962964C3.31195 0.794404 3.62836 0.770351 3.8961 0.899517L8.61888 3.18003L11.1073 1.47098Z"
    fill="#EC502C" />
</svg>